#N canvas 533 76 1249 614 10;
#X declare -path libs/aubio;
#X declare -path abs;
#X declare -path libs/mrpeach;
#X obj 68 170 adc~;
#X obj 68 265 bng 15 250 50 0 empty empty empty 17 7 0 10 -262144 -1
-1;
#X obj 68 192 *~ 1;
#X obj 68 237 aubiotempo~ 0.3;
#X obj 158 193 hsl 128 15 0.1 10 0 1 empty empty empty -2 -8 0 10 -262144
-1 -1 257 1;
#X floatatom 165 213 5 0 0 0 - - -, f 5;
#X obj 313 237 aubioquiet~ -90;
#X obj 313 170 adc~;
#X obj 313 192 *~ 1;
#X obj 539 170 adc~;
#X obj 539 259 dbtorms;
#X floatatom 539 281 5 0 0 0 - - -, f 5;
#X text 65 138 TEMPO;
#X text 535 138 RMS;
#X obj 539 192 *~ 1;
#X floatatom 592 266 5 0 0 0 - - -, f 5;
#X obj 539 237 env~ 2048;
#X text 313 138 LOUDNESS CHANGE;
#X obj 67 45 declare -path libs/aubio;
#X obj 67 25 declare -path abs;
#N canvas 508 184 782 653 fft-spectrum~ 0;
#X obj 103 87 tabreceive~ hanning;
#X obj 54 115 *~;
#X msg 400 151 0;
#X obj 314 200 osc~;
#X obj 314 152 samplerate~;
#X obj 314 223 *~ -0.5;
#X obj 314 246 +~ 0.5;
#X obj 306 94 bng 15 250 50 0 empty empty empty 0 -6 0 8 -262144 -1
-1;
#X obj 306 271 tabwrite~ hanning;
#X obj 54 142 rfft~;
#X obj 54 177 *~;
#X obj 81 176 *~;
#X obj 54 219 +~;
#X obj 54 24 inlet~;
#X obj 306 116 t b b b;
#X obj 306 23 loadbang;
#X obj 54 246 q8_sqrt~;
#X obj 53 -67 block~ 128 1;
#X obj 305 294 table hanning 128;
#X obj 314 176 / 128;
#X obj 54 289 /~ 64;
#X obj 55 352 table spectrum 64;
#X obj 543 131 until;
#X obj 543 159 f;
#X obj 574 161 + 1;
#X obj 604 160 sel 0;
#X obj 574 182 mod 64;
#X obj 570 225 tabread spectrum;
#X obj 54 327 tabwrite~ spectrum;
#X obj 108 298 bang~;
#X obj 543 100 inlet;
#X obj 543 291 outlet;
#X obj 543 200 t f f;
#X obj 543 261 pack f f;
#X connect 0 0 1 1;
#X connect 1 0 9 0;
#X connect 2 0 3 1;
#X connect 3 0 5 0;
#X connect 4 0 19 0;
#X connect 5 0 6 0;
#X connect 6 0 8 0;
#X connect 7 0 14 0;
#X connect 9 0 10 0;
#X connect 9 0 10 1;
#X connect 9 1 11 0;
#X connect 9 1 11 1;
#X connect 10 0 12 0;
#X connect 11 0 12 1;
#X connect 12 0 16 0;
#X connect 13 0 1 0;
#X connect 14 0 8 0;
#X connect 14 1 4 0;
#X connect 14 2 2 0;
#X connect 15 0 7 0;
#X connect 16 0 20 0;
#X connect 19 0 3 0;
#X connect 20 0 28 0;
#X connect 22 0 23 0;
#X connect 23 0 24 0;
#X connect 23 0 32 0;
#X connect 24 0 26 0;
#X connect 25 0 22 1;
#X connect 26 0 23 1;
#X connect 26 0 25 0;
#X connect 27 0 33 1;
#X connect 29 0 28 0;
#X connect 30 0 22 0;
#X connect 32 0 33 0;
#X connect 32 1 27 0;
#X connect 33 0 31 0;
#X restore 727 246 pd fft-spectrum~;
#X obj 820 215 bng 15 250 50 0 empty empty empty 17 7 0 10 -262144
-1 -1;
#X text 852 214 Sample FFT spectrum;
#X text 852 234 Prints out 64 bins with corresponding amplitude;
#X text 852 254 Bin frequency = (44100 / 128 = 344.5) * bin;
#X text 725 138 FFT;
#X obj 820 153 tgl 15 0 empty empty empty 17 7 0 10 -262144 -1 -1 0
1;
#X obj 820 180 metro 500;
#X obj 67 65 declare -path libs/mrpeach;
#X obj 491 477 udpsend;
#X msg 565 429 connect 127.0.0.1 9997;
#X obj 426 436 packOSC;
#X msg 313 259 symbol QUIET;
#X msg 400 259 symbol LOUD;
#X msg 539 310 send /rms-db \$1;
#X msg 576 449 disconnect;
#X msg 727 309 send /fft \$1 \$2;
#X msg 68 310 send /tempo-bang;
#X msg 313 310 send /loudness-change \$1;
#X obj 426 477 spigot;
#X connect 0 0 2 0;
#X connect 1 0 37 0;
#X connect 2 0 3 0;
#X connect 3 0 1 0;
#X connect 4 0 5 0;
#X connect 4 0 3 1;
#X connect 6 0 32 0;
#X connect 6 1 33 0;
#X connect 7 0 8 0;
#X connect 8 0 6 0;
#X connect 9 0 14 0;
#X connect 10 0 11 0;
#X connect 11 0 34 0;
#X connect 14 0 16 0;
#X connect 14 0 20 0;
#X connect 16 0 10 0;
#X connect 16 0 15 0;
#X connect 20 0 36 0;
#X connect 21 0 20 1;
#X connect 26 0 27 0;
#X connect 27 0 21 0;
#X connect 29 0 39 1;
#X connect 30 0 29 0;
#X connect 31 0 39 0;
#X connect 32 0 38 0;
#X connect 33 0 38 0;
#X connect 34 0 31 0;
#X connect 35 0 29 0;
#X connect 36 0 31 0;
#X connect 37 0 31 0;
#X connect 38 0 31 0;
#X connect 39 0 29 0;
